# xmcd
#
# Track frame offsets: 
#        150
#        14044
#        26778
#        39008
#        50321
#        63790
#        75494
#        89215
#        103543
#        116621
#
# Disc length: 1743 seconds
#
# Revision: 4
# Processed by: cddbd v1.5.2PL0 Copyright (c) Steve Scherf et al.
# Submitted via: ExactAudioCopyFreeDBPlugin 1.0
#
DISCID=7706cd0a
DTITLE=Various Artist - Best of the Blues -  Disc 3
DYEAR=1900
DGENRE=Blues
TTITLE0=Muddy Water - Take A Walk With Me
TTITLE1=Billie Holiday - Am I Blue
TTITLE2=Peter Chatham - Blues At Midnight
TTITLE3=John Lee Hooker - Hard Headed Woman
TTITLE4=Billie Holiday - Night And Day
TTITLE5=Dinah Washington - Shoo Shoo Baby
TTITLE6=Leadbelly - New York City
TTITLE7=Big Joe Williams - Stack O Dollars
TTITLE8=Lightning Hopkins - L A Blues
TTITLE9=John Lee Hooker - Stomp Boogie
EXTD=
EXTT0=
EXTT1=
EXTT2=
EXTT3=
EXTT4=
EXTT5=
EXTT6=
EXTT7=
EXTT8=
EXTT9=
PLAYORDER=
